<svg width="1024" height="768" viewBox="0 0 1024 768" xmlns="http://www.w3.org/2000/svg">
  <defs>
    <linearGradient id="tableBg" x1="0%" y1="0%" x2="0%" y2="100%">
      <stop offset="0%" style="stop-color:#1a1f2e;stop-opacity:1" />
      <stop offset="100%" style="stop-color:#0d1117;stop-opacity:1" />
    </linearGradient>
    <linearGradient id="syringeBody" x1="0%" y1="0%" x2="0%" y2="100%">
      <stop offset="0%" style="stop-color:#e8e8e8;stop-opacity:0.9" />
      <stop offset="100%" style="stop-color:#c8c8c8;stop-opacity:0.9" />
    </linearGradient>
    <radialGradient id="spotlight">
      <stop offset="0%" style="stop-color:#ffffff;stop-opacity:0.2" />
      <stop offset="100%" style="stop-color:#000000;stop-opacity:0" />
    </radialGradient>
    <filter id="shadow">
      <feGaussianBlur in="SourceAlpha" stdDeviation="10"/>
      <feOffset dx="0" dy="6"/>
      <feMerge><feMergeNode/><feMergeNode in="SourceGraphic"/></feMerge>
    </filter>
  </defs>
  
  <rect width="1024" height="768" fill="url(#tableBg)"/>
  <ellipse cx="512" cy="384" rx="450" ry="350" fill="url(#spotlight)"/>
  
  <rect x="50" y="50" width="220" height="85" rx="4" fill="#0a0a0a" stroke="#00ff00" stroke-width="3" opacity="0.95"/>
  <text x="160" y="80" fill="#00ff00" font-family="'Courier New', monospace" font-size="14" font-weight="bold" text-anchor="middle">FORENSICS</text>
  <text x="160" y="115" fill="#00ff00" font-family="'Courier New', monospace" font-size="26" font-weight="bold" text-anchor="middle">F-08</text>
  
  <g filter="url(#shadow)">
    <rect x="250" y="300" width="30" height="180" rx="5" fill="url(#syringeBody)"/>
    <rect x="280" y="330" width="350" height="120" rx="8" fill="url(#syringeBody)"/>
    <rect x="285" y="335" width="340" height="110" rx="6" fill="#4a90e2" opacity="0.3"/>
    <circle cx="620" cy="390" r="25" fill="#d4d4d4"/>
    <circle cx="620" cy="390" r="18" fill="#888"/>
    <rect x="620" y="375" width="80" height="30" fill="#c8c8c8"/>
    <polygon points="700,375 720,390 700,405" fill="#a8a8a8"/>
  </g>
  
  <g opacity="0.6">
    <ellipse cx="400" cy="380" rx="45" ry="60" fill="none" stroke="#00ff00" stroke-width="2" transform="rotate(-15 400 380)"/>
    <ellipse cx="400" cy="380" rx="38" ry="53" fill="none" stroke="#00ff00" stroke-width="1.5" transform="rotate(-15 400 380)"/>
    <ellipse cx="400" cy="380" rx="31" ry="46" fill="none" stroke="#00ff00" stroke-width="1" transform="rotate(-15 400 380)"/>
    <ellipse cx="400" cy="380" rx="24" ry="39" fill="none" stroke="#00ff00" stroke-width="0.8" transform="rotate(-15 400 380)"/>
  </g>
  
  <line x1="350" y1="150" x2="400" y2="320" stroke="#00ff00" stroke-width="2"/>
  <rect x="250" y="100" width="200" height="60" rx="4" fill="#0a0a0a" stroke="#00ff00" stroke-width="2"/>
  <text x="350" y="125" fill="#00ff00" font-family="'Courier New', monospace" font-size="12" text-anchor="middle">FINGERPRINT MATCH</text>
  <text x="350" y="145" fill="#e8e8e8" font-family="'Courier New', monospace" font-size="11" text-anchor="middle">Chloe Evans - 97%</text>
  
  <rect x="200" y="250" width="40" height="4" fill="#ffd700"/>
  <rect x="260" y="250" width="40" height="4" fill="#ffd700"/>
  <rect x="320" y="250" width="40" height="4" fill="#ffd700"/>
  <text x="280" y="245" fill="#ffd700" font-family="'Courier New', monospace" font-size="10">5cm</text>
  
  <rect x="50" y="600" width="500" height="120" rx="6" fill="#0a0a0a" stroke="#00ff00" stroke-width="2" opacity="0.95"/>
  <text x="300" y="630" fill="#00ff00" font-family="'Courier New', monospace" font-size="14" font-weight="bold" text-anchor="middle">LAB ANALYSIS</text>
  <text x="70" y="655" fill="#e8e8e8" font-family="'Courier New', monospace" font-size="11">Item: 0.5mL precision syringe</text>
  <text x="70" y="675" fill="#e8e8e8" font-family="'Courier New', monospace" font-size="11">Residue: Sesame oil concentrate (matches whiskey glass)</text>
  <text x="70" y="695" fill="#e8e8e8" font-family="'Courier New', monospace" font-size="11">Prints: Single dominant print - Chloe Evans (97% match)</text>
  <text x="70" y="715" fill="#ff6b6b" font-family="'Courier New', monospace" font-size="11" font-weight="bold">Tool likely used to fill capsules to controlled volumes</text>
  
</svg>
